<svg width="14" height="14" viewBox="0 0 14 14" fill="none" xmlns="http://www.w3.org/2000/svg">
<path d="M13.4286 5.71429H8V0.285714C8 0.128571 7.87143 0 7.71429 0H6C5.84286 0 5.71429 0.128571 5.71429 0.285714V5.71429H0.285714C0.128571 5.71429 0 5.84286 0 6V7.71429C0 7.87143 0.128571 8 0.285714 8H5.71429V13.4286C5.71429 13.5857 5.84286 13.7143 6 13.7143H7.71429C7.87143 13.7143 8 13.5857 8 13.4286V8H13.4286C13.5857 8 13.7143 7.87143 13.7143 7.71429V6C13.7143 5.84286 13.5857 5.71429 13.4286 5.71429Z" fill="#121212"/>
</svg>
