<svg width="22" height="26" viewBox="0 0 22 26" fill="none" xmlns="http://www.w3.org/2000/svg">
<path fill-rule="evenodd" clip-rule="evenodd" d="M9.84679 1.31787L10.5605 0L11.2742 1.31787L14.0811 6.50076H19.6936H21.121L20.4412 7.75593L17.601 13.0003L20.4412 18.2448L21.121 19.5H19.6936H14.0808L11.2742 24.6822L10.5605 26L9.84678 24.6822L7.0402 19.5H1.42742H0L0.679756 18.2448L3.52003 13.0003L0.679784 7.75593L1.71004e-07 6.50076H1.42743H7.03992L9.84679 1.31787ZM3.50393 7.75593L5.67026 9.02984L6.36017 7.75593H3.50393ZM7.07761 9.85744L6.7529 9.66649L7.78758 7.75593L13.3334 7.75593L14.4501 9.81793L14.3789 9.85744H14.0151H7.10585H7.07761ZM15.0479 10.9217L14.7842 11.0679L14.7598 11.1126L11.2756 17.4923L11.0471 17.9107L11.0512 18.2448H13.3332L16.1735 13.0002L15.0479 10.9217ZM9.7852 17.3821L9.79597 18.2448H7.78785L4.94745 13.0002L6.1548 10.7709L6.18391 10.788L6.36119 11.1126L9.7852 17.3821ZM11.0151 15.3506L12.7329 12.2053L10.9879 13.1728L11.0151 15.3506ZM9.72888 12.8726L9.75173 14.7021L8.29068 12.0269L9.72888 12.8726ZM9.81165 19.5L9.84337 22.0402L8.46763 19.5H9.81165ZM11.1027 22.3633L11.0669 19.5H12.6534L11.1027 22.3633ZM9.21208 11.1126H12.1151L10.6209 11.9411L9.21208 11.1126ZM18.2655 9.13766L16.1457 10.313L16.8873 11.6824L18.2655 9.13766ZM15.5479 9.20925L18.169 7.75593H14.7608L15.5479 9.20925ZM5.07216 10.1342L2.61165 8.68734L4.23373 11.6824L5.07216 10.1342ZM4.23375 14.3181L2.10718 18.2448H6.36041L4.23375 14.3181ZM14.7606 18.2448H19.0138L16.8872 14.3181L14.7606 18.2448ZM8.46734 6.50076L10.5605 2.63574L12.6537 6.50076H8.46734Z" fill="url(#paint0_linear)"/>
<defs>
<linearGradient id="paint0_linear" x1="21.121" y1="25.4265" x2="-4.95713" y2="11.284" gradientUnits="userSpaceOnUse">
<stop stop-color="#FFC700"/>
<stop offset="0.313916" stop-color="#FFC700"/>
<stop offset="0.683663" stop-color="#FEDA5B"/>
<stop offset="1" stop-color="#FEE075"/>
</linearGradient>
</defs>
</svg>
