<svg width="16" height="12" viewBox="0 0 16 12" fill="none" xmlns="http://www.w3.org/2000/svg">
<path d="M15.2678 3.88368L11.7365 0.963143C11.4451 0.722165 11.1495 0.599976 10.8581 0.599976C10.4579 0.599976 9.99057 0.851713 9.99057 1.56119V2.55549C7.42498 2.64797 5.02907 3.51817 3.20167 5.02943C1.26617 6.63004 0.200164 8.75824 0.199951 11.0219C0.199921 11.1846 0.325726 11.329 0.512256 11.3805C0.559848 11.3936 0.608628 11.4 0.656921 11.4C0.7979 11.4 0.93437 11.3459 1.02239 11.249C3.1801 8.87363 6.42871 7.46984 9.99057 7.35899V8.33795C9.99057 9.0474 10.4579 9.29916 10.858 9.29919C11.1495 9.29919 11.4451 9.177 11.7365 8.93602L15.2677 6.01546C15.611 5.73167 15.8 5.35313 15.8 4.94959C15.8 4.54603 15.611 4.16749 15.2678 3.88368ZM14.6214 5.48092L11.0901 8.4015C11.0224 8.45752 10.9663 8.4929 10.9249 8.51439C10.914 8.47501 10.9046 8.41717 10.9046 8.33797V6.97393C10.9046 6.76518 10.7 6.59594 10.4476 6.59594C8.41695 6.59594 6.47654 6.98073 4.68038 7.73957C3.39094 8.28435 2.21223 9.01769 1.21404 9.89104C1.87808 6.16922 5.76595 3.30325 10.4476 3.30325C10.7 3.30325 10.9046 3.13401 10.9046 2.92526V1.56119C10.9046 1.48199 10.914 1.42416 10.9249 1.3848C10.9663 1.40629 11.0224 1.44167 11.0901 1.49769L14.6214 4.41825C14.792 4.55929 14.8859 4.74798 14.8859 4.94959C14.8859 5.15119 14.792 5.33988 14.6214 5.48092Z" fill="#121212"/>
</svg>
