<svg width="172" height="220" viewBox="0 0 172 220" fill="none" xmlns="http://www.w3.org/2000/svg">
<path d="M29.2125 212.571C32.7765 212.571 35.0425 210.635 35.0425 208.039C35.0425 205.685 32.6445 204.607 31.2805 204.365C31.2365 204.365 31.2145 204.343 31.2805 204.321C32.4685 203.903 33.9645 202.803 33.9645 200.933C33.9645 199.767 33.1285 197.919 29.9165 197.919C28.9485 197.919 28.2885 198.051 27.6065 198.227C27.1665 198.315 26.8365 198.403 26.6165 198.447C26.4625 198.491 26.4405 198.623 26.4405 198.821C26.4405 199.239 26.5065 200.119 26.5065 200.779C26.5065 200.977 26.5945 201.043 26.6605 201.043C26.7705 201.043 26.8145 200.977 26.8365 200.757C26.8805 199.481 27.5845 198.601 29.2785 198.601C31.5665 198.601 32.2045 200.119 32.2045 201.461C32.2045 203.243 31.1265 204.189 29.2565 204.343C28.7725 204.409 28.5525 204.475 28.5525 204.585C28.5525 204.717 28.7505 204.761 29.2565 204.783C31.2585 204.871 33.1285 205.993 33.1285 208.523C33.1285 210.767 31.6545 211.911 29.4985 211.911C27.5185 211.911 26.5065 211.009 26.4185 209.491C26.3965 209.205 26.3525 209.205 26.2645 209.205C26.1765 209.205 26.1545 209.249 26.1105 209.469C26.0445 209.887 26.0005 210.833 26.0225 211.471C26.0225 211.713 26.1105 211.933 26.3965 212.087C26.9245 212.329 27.8485 212.571 29.2125 212.571ZM45.505 206.961C45.593 206.961 45.637 207.005 45.681 207.071L47.419 211.493C47.551 211.823 47.419 211.933 47.331 211.977C47.243 211.999 47.177 212.065 47.177 212.131C47.177 212.241 47.309 212.263 47.727 212.285C49.201 212.329 50.851 212.329 51.071 212.329C51.313 212.329 51.401 212.285 51.401 212.175C51.401 212.065 51.291 212.021 51.137 212.021C50.983 212.021 50.675 212.021 50.389 211.911C50.081 211.801 49.443 211.515 48.717 209.777C47.551 207.027 44.559 199.349 44.251 198.623C44.009 198.007 43.921 197.919 43.811 197.919C43.657 197.919 43.591 198.029 43.349 198.667L38.949 210.261C38.575 211.185 38.201 211.911 37.255 211.999C37.123 212.021 36.925 212.021 36.815 212.021C36.639 212.021 36.551 212.087 36.551 212.175C36.551 212.285 36.661 212.329 36.903 212.329C37.827 212.329 38.795 212.263 39.015 212.263C39.257 212.263 40.269 212.329 40.753 212.329C40.907 212.329 41.083 212.285 41.083 212.175C41.083 212.087 41.017 212.021 40.819 212.021C40.753 212.021 40.731 212.021 40.665 212.021C40.181 212.021 39.939 211.845 39.939 211.449C39.939 211.097 40.093 210.503 40.313 209.887L41.281 207.137C41.325 207.027 41.391 206.961 41.501 206.961H45.505ZM41.721 206.191C41.677 206.191 41.633 206.147 41.677 206.059L43.327 201.197C43.437 200.889 43.459 200.889 43.569 201.197L45.307 206.059C45.329 206.125 45.329 206.191 45.241 206.191H41.721ZM55.8078 199.217C55.8078 199.063 55.8518 199.019 56.0058 199.019C56.9738 199.019 57.8538 199.041 58.7998 199.063C59.5258 199.085 59.7018 199.217 59.9658 199.371C60.2518 199.613 60.3838 199.899 60.4058 200.493C60.4058 200.647 60.4498 200.691 60.5598 200.691C60.6478 200.691 60.7138 200.537 60.7138 200.339C60.7138 199.767 60.7358 199.327 60.8238 198.777C60.8678 198.557 60.9118 198.293 60.9338 198.227C60.9558 198.139 60.9338 198.051 60.8678 198.051C60.8238 198.051 60.7358 198.073 60.6918 198.095C60.4058 198.205 60.1198 198.205 59.6798 198.227C59.2178 198.249 55.1918 198.249 54.8618 198.249C54.1358 198.249 53.4098 198.183 52.6178 198.183C52.3978 198.183 52.2878 198.205 52.2878 198.337C52.2878 198.425 52.3978 198.469 52.5738 198.491C52.7498 198.491 53.0358 198.513 53.1458 198.535C53.7838 198.689 53.9158 198.975 53.9598 199.591C54.0038 200.185 54.0038 200.713 54.0038 203.595V206.895C54.0038 208.655 53.9818 209.953 53.9158 210.767C53.8718 211.559 53.7398 211.823 53.3218 211.955C53.1898 211.999 53.0798 211.999 52.8598 212.021C52.6838 212.043 52.6178 212.087 52.6178 212.153C52.6178 212.285 52.7058 212.329 52.9258 212.329C53.3878 212.329 54.2898 212.285 54.7078 212.263H54.8618C54.9498 212.263 56.3138 212.329 57.4578 212.329C57.6778 212.329 57.7218 212.263 57.7218 212.175C57.7218 212.087 57.6558 212.043 57.4798 212.021C57.2598 211.999 56.9738 211.999 56.7098 211.955C56.0498 211.889 55.8958 211.603 55.8518 210.591C55.8078 209.711 55.8078 208.369 55.8078 206.895V199.217ZM65.0043 206.895C65.0043 208.545 65.0043 210.129 64.8943 210.921C64.8283 211.449 64.7183 211.889 64.3223 211.955C64.1463 211.999 63.9043 212.043 63.7503 212.043C63.6403 212.043 63.5963 212.087 63.5963 212.153C63.5963 212.285 63.7063 212.329 63.9043 212.329C64.5203 212.329 65.8183 212.263 65.8403 212.263C65.9503 212.263 67.1823 212.329 68.3263 212.329C68.5463 212.329 68.6343 212.263 68.6343 212.153C68.6343 212.087 68.5903 212.043 68.5023 212.043C68.3263 212.043 67.8863 211.999 67.6223 211.955C67.0283 211.889 66.9183 211.449 66.8523 210.921C66.7643 210.129 66.7643 208.545 66.7643 206.851V199.239C66.7643 199.085 66.7863 198.931 66.8963 198.887C67.0283 198.821 67.3583 198.777 67.6443 198.777C68.0403 198.777 69.2943 198.667 70.3723 199.811C71.3843 200.867 71.3183 202.187 71.3183 202.473C71.3183 204.409 69.8663 205.597 68.1283 205.597C67.7103 205.597 67.5783 205.597 67.5783 205.773C67.5783 205.861 67.6883 205.905 67.7763 205.905C67.8863 205.927 68.1063 205.927 68.1943 205.927C70.9443 205.927 72.9683 204.145 72.9683 201.703C72.9683 200.471 72.4183 199.613 72.0003 199.239C71.6923 198.975 70.8123 198.183 68.3923 198.183C67.4903 198.183 66.3683 198.249 65.9063 198.249C65.7743 198.249 64.5643 198.183 63.6183 198.183C63.4203 198.183 63.3103 198.227 63.3103 198.359C63.3103 198.425 63.3983 198.469 63.4423 198.469C63.6183 198.469 63.9703 198.491 64.1243 198.513C64.7403 198.645 64.9163 198.997 64.9603 199.569C65.0043 200.163 65.0043 200.559 65.0043 203.595V206.895ZM77.6379 212.329C78.5179 212.329 80.6519 212.329 80.8499 212.285C80.9379 212.263 80.9819 212.219 80.9819 212.087C81.0699 211.581 81.5979 210.591 81.8619 210.041C82.8739 208.017 85.6679 202.627 87.1199 199.877C87.5379 199.085 87.7799 198.799 88.3299 198.623C88.5059 198.557 88.7259 198.513 89.0339 198.491C89.2099 198.469 89.3639 198.403 89.3639 198.293C89.3639 198.227 89.2759 198.183 89.0339 198.183C88.6819 198.183 87.7139 198.249 87.2299 198.249C86.7459 198.249 86.2399 198.205 85.8879 198.205C85.6899 198.205 85.6239 198.271 85.6239 198.337C85.6239 198.403 85.6899 198.513 85.8879 198.535C86.0859 198.579 86.3059 198.645 86.3059 198.799C86.3059 199.041 86.2179 199.305 85.9099 199.943C85.0519 201.725 83.5559 204.629 82.4559 206.763C82.0599 206.081 78.8479 200.229 78.4519 199.525C78.2759 199.217 78.1219 198.975 78.1219 198.821C78.1219 198.667 78.3419 198.535 78.6719 198.513C78.9359 198.469 78.9799 198.403 78.9799 198.293C78.9799 198.227 78.8699 198.183 78.6939 198.183C78.0119 198.183 77.0219 198.249 76.7799 198.249C76.2299 198.249 75.3059 198.183 74.6899 198.183C74.4479 198.183 74.3819 198.249 74.3819 198.315C74.3819 198.425 74.4479 198.491 74.6239 198.513C75.5259 198.579 75.9219 198.755 76.6259 199.987C77.4839 201.329 80.6959 207.027 81.3339 208.281C81.4439 208.479 81.4659 208.589 81.3559 208.765C81.1359 209.205 80.9159 209.623 80.4319 210.393C79.6179 211.581 78.9359 211.933 78.0559 211.999C77.7479 212.021 77.6599 212.021 77.5939 212.021C77.3959 212.021 77.2859 212.087 77.2859 212.175C77.2859 212.307 77.4619 212.329 77.6379 212.329ZM93.7086 212.571C97.2726 212.571 99.5386 210.635 99.5386 208.039C99.5386 205.685 97.1406 204.607 95.7766 204.365C95.7326 204.365 95.7106 204.343 95.7766 204.321C96.9646 203.903 98.4606 202.803 98.4606 200.933C98.4606 199.767 97.6246 197.919 94.4126 197.919C93.4446 197.919 92.7846 198.051 92.1026 198.227C91.6626 198.315 91.3326 198.403 91.1126 198.447C90.9586 198.491 90.9366 198.623 90.9366 198.821C90.9366 199.239 91.0026 200.119 91.0026 200.779C91.0026 200.977 91.0906 201.043 91.1566 201.043C91.2666 201.043 91.3106 200.977 91.3326 200.757C91.3766 199.481 92.0806 198.601 93.7746 198.601C96.0626 198.601 96.7006 200.119 96.7006 201.461C96.7006 203.243 95.6226 204.189 93.7526 204.343C93.2686 204.409 93.0486 204.475 93.0486 204.585C93.0486 204.717 93.2466 204.761 93.7526 204.783C95.7546 204.871 97.6246 205.993 97.6246 208.523C97.6246 210.767 96.1506 211.911 93.9946 211.911C92.0146 211.911 91.0026 211.009 90.9146 209.491C90.8926 209.205 90.8486 209.205 90.7606 209.205C90.6726 209.205 90.6506 209.249 90.6066 209.469C90.5406 209.887 90.4966 210.833 90.5186 211.471C90.5186 211.713 90.6066 211.933 90.8926 212.087C91.4206 212.329 92.3446 212.571 93.7086 212.571ZM105.909 203.595C105.909 200.691 105.887 200.185 105.931 199.591C105.975 198.953 106.041 198.623 106.679 198.535C106.833 198.513 106.943 198.513 107.075 198.491C107.251 198.469 107.317 198.425 107.317 198.337C107.317 198.227 107.207 198.183 106.987 198.183C106.371 198.183 105.095 198.249 105.007 198.249C104.941 198.249 103.687 198.183 103.005 198.183C102.763 198.183 102.675 198.227 102.675 198.337C102.675 198.425 102.763 198.469 102.917 198.491C103.049 198.513 103.203 198.513 103.423 198.557C103.885 198.645 104.017 198.975 104.061 199.569C104.105 200.163 104.105 200.691 104.105 203.595V206.895C104.105 208.545 104.105 210.107 103.995 210.899C103.929 211.427 103.863 211.867 103.489 211.955C103.313 211.999 103.071 212.021 102.961 212.021C102.763 212.021 102.675 212.087 102.675 212.175C102.675 212.285 102.829 212.329 103.027 212.329C103.643 212.329 104.941 212.263 105.007 212.263C105.117 212.263 106.393 212.329 107.515 212.329C107.735 212.329 107.823 212.263 107.823 212.175C107.823 212.087 107.779 212.043 107.581 212.021C107.493 212.021 107.031 211.999 106.745 211.933C106.173 211.801 106.085 211.559 105.997 210.921C105.887 210.129 105.909 208.589 105.909 206.895V205.157C107.647 207.203 111.167 210.811 112.157 211.515C113.037 212.131 113.477 212.329 115.193 212.329H116.623C116.865 212.329 116.975 212.285 116.975 212.197C116.975 212.087 116.865 212.043 116.667 212.021C116.293 211.977 116.403 211.999 116.161 211.955C115.281 211.757 114.533 211.361 112.993 209.953C112.069 209.117 108.505 205.597 107.317 204.365C108.285 203.485 110.199 201.615 111.805 200.163C112.949 199.129 113.235 198.887 113.763 198.711C114.027 198.601 114.489 198.513 114.841 198.491C115.017 198.469 115.083 198.403 115.083 198.315C115.083 198.227 115.039 198.183 114.731 198.183C114.445 198.183 113.235 198.249 112.575 198.249C111.871 198.249 111.211 198.183 111.079 198.183C110.903 198.183 110.859 198.249 110.859 198.315C110.859 198.403 110.947 198.447 111.101 198.491C111.365 198.579 111.453 198.689 111.453 198.843C111.453 199.085 111.365 199.195 110.309 200.361C109.319 201.439 106.921 203.727 105.909 204.629V203.595ZM124.632 206.961C124.72 206.961 124.764 207.005 124.808 207.071L126.546 211.493C126.678 211.823 126.546 211.933 126.458 211.977C126.37 211.999 126.304 212.065 126.304 212.131C126.304 212.241 126.436 212.263 126.854 212.285C128.328 212.329 129.978 212.329 130.198 212.329C130.44 212.329 130.528 212.285 130.528 212.175C130.528 212.065 130.418 212.021 130.264 212.021C130.11 212.021 129.802 212.021 129.516 211.911C129.208 211.801 128.57 211.515 127.844 209.777C126.678 207.027 123.686 199.349 123.378 198.623C123.136 198.007 123.048 197.919 122.938 197.919C122.784 197.919 122.718 198.029 122.476 198.667L118.076 210.261C117.702 211.185 117.328 211.911 116.382 211.999C116.25 212.021 116.052 212.021 115.942 212.021C115.766 212.021 115.678 212.087 115.678 212.175C115.678 212.285 115.788 212.329 116.03 212.329C116.954 212.329 117.922 212.263 118.142 212.263C118.384 212.263 119.396 212.329 119.88 212.329C120.034 212.329 120.21 212.285 120.21 212.175C120.21 212.087 120.144 212.021 119.946 212.021C119.88 212.021 119.858 212.021 119.792 212.021C119.308 212.021 119.066 211.845 119.066 211.449C119.066 211.097 119.22 210.503 119.44 209.887L120.408 207.137C120.452 207.027 120.518 206.961 120.628 206.961H124.632ZM120.848 206.191C120.804 206.191 120.76 206.147 120.804 206.059L122.454 201.197C122.564 200.889 122.586 200.889 122.696 201.197L124.434 206.059C124.456 206.125 124.456 206.191 124.368 206.191H120.848ZM133.438 212.439C134.098 212.439 134.582 211.933 134.582 211.251C134.582 210.569 134.098 210.107 133.46 210.107C132.668 210.107 132.294 210.767 132.294 211.273C132.294 211.801 132.668 212.439 133.438 212.439ZM138.938 212.439C139.598 212.439 140.082 211.933 140.082 211.251C140.082 210.569 139.598 210.107 138.96 210.107C138.168 210.107 137.794 210.767 137.794 211.273C137.794 211.801 138.168 212.439 138.938 212.439ZM144.438 212.439C145.098 212.439 145.582 211.933 145.582 211.251C145.582 210.569 145.098 210.107 144.46 210.107C143.668 210.107 143.294 210.767 143.294 211.273C143.294 211.801 143.668 212.439 144.438 212.439Z" fill="white"/>
<path fill-rule="evenodd" clip-rule="evenodd" d="M116.918 29.5442L119.899 27.5587L119.933 31.1406L120.287 68.7862L151.969 85.5612L154.984 87.1576L152.145 89.0486L120.674 110.006L121.029 147.815L121.061 151.227L118.046 149.631L86.3625 132.855L55.031 153.719L52.0496 155.705L52.0159 152.123L51.6615 114.482L19.9776 97.706L16.9625 96.1096L19.8021 94.2186L51.2733 73.2602L50.9327 37.0826L50.832 36.9211L50.9306 36.8596L50.9174 35.4519L50.8852 32.0403L53.9004 33.6367L85.5829 50.4116L116.918 29.5442ZM53.9788 41.9665L54.2548 71.2747L66.975 62.8036L53.9788 41.9665ZM69.4731 61.14L54.7006 37.455L82.7433 52.3027L69.4731 61.14ZM71.2647 64.0126L71.0614 63.6866L85.7584 53.8991L117.304 70.6013L117.456 86.8268L114.615 86.9655L73.1203 64.9951L71.2647 64.0126ZM117.484 89.829L116.779 89.8635L115.399 90.775L73.8092 118.26L72.09 119.397L71.0777 121.367L86.187 129.367L117.659 108.409L117.484 89.829ZM68.4262 119.964L70.7719 115.396L70.1578 67.9067L68.5633 65.3503L54.2885 74.8566L54.6445 112.667L68.4262 119.964ZM74.8857 113.953L110.903 90.1504L86.4984 91.3419L74.8857 113.953ZM83.8703 89.8924L73.6985 109.698L73.2215 72.8189L83.8703 89.8924ZM67.0555 122.632L54.9601 146.183L54.6766 116.078L67.0555 122.632ZM56.9799 148.817L69.7071 124.036L83.3473 131.258L56.9799 148.817ZM74.4258 69.0808L108.746 87.2521L86.4385 88.3413L74.4258 69.0808ZM147.782 88.3498L120.483 89.6826L120.64 106.424L147.782 88.3498ZM120.455 86.6804L145.374 85.4637L120.319 72.1978L120.455 86.6804ZM51.3071 76.8421L22.8172 95.815L51.6293 111.07L51.3071 76.8421ZM89.2022 130.964L118.014 146.219L117.693 111.991L89.2022 130.964ZM117.271 67.1898L88.598 52.0081L116.951 33.1261L117.271 67.1898Z" fill="url(#paint0_linear)"/>
<defs>
<linearGradient id="paint0_linear" x1="105.596" y1="180.437" x2="13.9707" y2="42.6793" gradientUnits="userSpaceOnUse">
<stop stop-color="#FFC700"/>
<stop offset="0.313916" stop-color="#FFC700"/>
<stop offset="0.683663" stop-color="#FEDA5B"/>
<stop offset="1" stop-color="#FEE075"/>
</linearGradient>
</defs>
</svg>
